<svg width="20" height="20" viewBox="0 0 20 20" fill="none" xmlns="http://www.w3.org/2000/svg">
<g clip-path="url(#clip0)">
<path d="M6.78538 15.1394C8.29246 17.8289 9.82067 19.8888 9.83598 19.9092L10.0166 19.7754L10.0165 19.7753L10.0162 19.7751L10.0158 19.7748L10.0122 19.7724L9.7871 19.6238L9.7875 19.6232C9.79419 19.6131 9.87183 19.4956 10.0046 19.2892M6.78538 15.1394L7.22157 14.895M6.78538 15.1394L7.22157 14.895C7.22157 14.895 7.22157 14.895 7.22157 14.895M6.78538 15.1394L7.22157 14.895M7.22157 14.895C7.96691 16.2251 8.71823 17.4008 9.2854 18.2468C9.56881 18.6695 9.8058 19.0093 9.9725 19.2441C9.98351 19.2596 9.99421 19.2746 10.0046 19.2892M7.22157 14.895C5.20096 11.289 4.22192 8.3941 4.22192 6.26162C4.22192 3.08528 6.80782 0.5 9.9858 0.5H10.0143C13.1922 0.5 15.7782 3.08523 15.7783 6.26162L7.22157 14.895ZM10.0046 19.2892C10.4756 18.5568 11.6405 16.704 12.7925 14.5471L13.2335 14.7826L12.7925 14.5471C14.812 10.7661 15.7783 7.99688 15.7783 6.26164L10.0046 19.2892Z" stroke="black" stroke-linecap="round" stroke-linejoin="round"/>
<circle cx="10" cy="6" r="2.5" stroke="black"/>
</g>
<defs>
<clipPath id="clip0">
<path d="M0 0H20V20H0V0Z" fill="white"/>
</clipPath>
</defs>
</svg>
